<svg xmlns="http://www.w3.org/2000/svg" xmlns:xlink="http://www.w3.org/1999/xlink" width="470" height="326" fill="none"><ellipse cx="235" cy="271.027" rx="222.074" ry="22.17" fill="#636363" filter="url(#A)" opacity=".2"/><path d="M364.106 262.574H96.636a6.86 6.86 0 0 1-6.858-6.858V79.396a6.86 6.86 0 0 1 6.858-6.858h267.4a6.86 6.86 0 0 1 6.858 6.858v176.32c0 3.827-3.03 6.858-6.778 6.858z" fill="#43434C"/><path d="M387.79 277.805H72.95c-7.975 0-14.354-6.46-14.354-14.354v-9.17h343.548v9.17c0 7.895-6.38 14.354-14.354 14.354z" fill="#35353F"/><path d="M402.145 254.28H58.597v6.54h343.548v-6.54z" opacity=".58" fill="#fff"/><path d="M232.524 78.2c0 1.196-.957 2.153-2.153 2.153s-2.153-.957-2.153-2.153.957-2.153 2.153-2.153 2.153.957 2.153 2.153z" fill="#2A2A34"/><path d="M363.628 82.985H97.115v165.873h266.513V82.985z" fill="#F5F5F5"/><path d="M363.628 82.985H97.115v15.232h266.513V82.985z" fill="#4267B2"/><path d="M148.55 86.653h-7.097c-.24 0-.4.16-.4.4v7.098c0 .24.16.4.4.4h3.827v-3.1h-1.036v-1.196h1.036v-.877c0-1.037.638-1.595 1.516-1.595.398 0 .797 0 .957.08V88.9h-.638c-.48 0-.56.24-.56.558v.797h1.197l-.16 1.196h-1.037v3.1h1.994c.24 0 .4-.16.4-.4v-7.098a.43.43 0 0 0-.399-.399zM253.1 87.77h-94.82v5.423h94.82V87.77z" fill="#F5F5F5"/><g fill="#E3E5F3"><path d="M182.922 111.534h-41.867V153.4h41.867v-41.867z"/><use xlink:href="#B"/><use xlink:href="#B" y="11.963"/><path d="M269.686 140.72h-78.8v7.417h78.8v-7.417zm-86.764 26.636h-41.867v41.867h41.867v-41.867z"/><use xlink:href="#B" y="55.823"/><use xlink:href="#B" y="67.785"/><use xlink:href="#B" y="79.747"/></g><path d="M375.43 293.196h-61.405a10.69 10.69 0 0 1-10.686-10.686v-123.766a10.69 10.69 0 0 1 10.686-10.686h61.405a10.69 10.69 0 0 1 10.686 10.686V282.5a10.69 10.69 0 0 1-10.686 10.686z" fill="#43434C"/><path d="M375.75 288.97h-62.043a6.43 6.43 0 0 1-6.459-6.46V158.903a6.43 6.43 0 0 1 6.459-6.459h62.043a6.43 6.43 0 0 1 6.46 6.459v123.607c0 3.51-2.95 6.46-6.46 6.46z" fill="#F5F5F5"/><path d="M377.21 152.444h-64.962a5 5 0 0 0-5 5v9.912h74.962v-9.912a5 5 0 0 0-5-5z" fill="#4267B2"/><path d="M317.614 158.664h-5.662c-.16 0-.32.16-.32.32v5.662c0 .16.16.32.32.32h3.03v-2.472h-.797v-.957h.797v-.718c0-.797.48-1.276 1.276-1.276h.718v.877h-.48c-.398 0-.478.16-.478.48v.638h.957l-.16.957h-.797v2.472h1.595c.16 0 .32-.16.32-.32v-5.662c0-.16-.16-.32-.32-.32zm61.484.876h-53.67v4.386h53.67v-4.386z" fill="#F5F5F5"/><g fill="#E3E5F3"><path d="M333.483 175.49h-21.93v21.93h21.93v-21.93z"/><use xlink:href="#C"/><use xlink:href="#C" y="6.3"/><use xlink:href="#C" y="12.52"/><path d="M333.483 204.04h-21.93v21.93h21.93v-21.93z"/><use xlink:href="#C" y="28.548"/><use xlink:href="#C" y="34.848"/><use xlink:href="#C" y="41.068"/><path d="M333.483 232.5h-21.93v21.93h21.93V232.5zm45.457 2.8h-41.3v3.908h41.3V235.3zm0 6.3h-41.3v3.908h41.3V241.6zm0 6.22h-41.3v3.907h41.3v-3.907z"/></g><path d="M353.978 157.308h-18.58c-2.87 0-5.343-1.914-6.06-4.705l-.877-3.35h32.377l-.877 3.35c-.638 2.79-3.1 4.705-5.98 4.705z" fill="#43434C"/><path d="M337.4 152.444c0 .877-.718 1.515-1.515 1.515-.878 0-1.516-.718-1.516-1.515 0-.877.718-1.515 1.516-1.515s1.515.638 1.515 1.515zm16.43 1.276h-11.962a1.26 1.26 0 1 1 0-2.552h11.962a1.26 1.26 0 1 1 0 2.552z" fill="#2A2A34"/><g fill="#fff"><path d="M405.415 110.896l-27.832 33.015 11.962-41.468c1.435-4.865 6.46-7.656 11.324-6.3 4.865 1.435 7.656 6.46 6.3 11.324a8.77 8.77 0 0 1-1.754 3.429z"/><path d="M417.775 104.835c0 11.244-9.17 20.415-20.415 20.415s-20.415-9.17-20.415-20.415 9.17-20.415 20.415-20.415c11.324 0 20.415 9.17 20.415 20.415z"/></g><path d="M409.95 117.335c6.914-6.914 6.914-18.123 0-25.037s-18.123-6.914-25.036 0-6.914 18.123 0 25.036 18.123 6.914 25.036.001z" fill="#F25268"/><g fill="#fff"><path d="M408.923 101.246c0-.638-.398-6.22-5.74-6.22s-5.822 4.147-5.822 4.147-.478-4.147-5.82-4.147-5.742 5.582-5.742 6.22c0 6.22 7.576 11.803 11.563 14.036 4.067-2.153 11.563-7.815 11.563-14.036zM112.904 49.8l-.32 43.143L95.36 53.4c-1.994-4.625.08-10.048 4.785-12.042 4.625-1.994 10.048.08 12.042 4.785.478 1.116.717 2.472.717 3.668z"/><path d="M123.112 49.8c0 11.244-9.17 20.415-20.415 20.415S82.282 61.054 82.282 49.8s9.17-20.415 20.415-20.415 20.415 9.17 20.415 20.415z"/></g><path d="M119.926 53.904c2.247-9.515-3.645-19.05-13.16-21.298s-19.05 3.645-21.297 13.16 3.645 19.05 13.16 21.298 19.05-3.645 21.297-13.16z" fill="#F25268"/><g fill="#fff"><path d="M114.26 46.22c0-.638-.4-6.22-5.742-6.22s-5.82 4.147-5.82 4.147S102.218 40 96.875 40s-5.742 5.582-5.742 6.22c0 6.22 7.576 11.802 11.564 14.035 3.987-2.153 11.563-7.815 11.563-14.035zm163.56 144.263l43.7 49.762-58.853-27.353c-7.097-2.87-10.447-10.926-7.655-17.943 2.87-7.098 10.925-10.447 17.943-7.656 1.913.718 3.508 1.834 4.864 3.2z"/><path d="M296.88 198.856c0 16.906-13.717 30.703-30.703 30.703-16.906 0-30.702-13.717-30.702-30.703 0-16.906 13.716-30.702 30.702-30.702s30.703 13.716 30.703 30.702z"/></g><path d="M292.194 204.958c3.38-14.316-5.485-28.662-19.8-32.042s-28.66 5.484-32.042 19.8 5.485 28.662 19.8 32.043 28.662-5.485 32.042-19.8z" fill="#F25268"/><g fill="#fff"><path d="M283.562 193.513c0-.877-.638-9.33-8.613-9.33-8.054 0-8.692 6.22-8.692 6.22s-.718-6.22-8.692-6.22c-8.055 0-8.613 8.373-8.613 9.33 0 9.33 11.324 17.784 17.305 21.133 5.98-3.35 17.305-11.882 17.305-21.133zM378.78 30.6l-28 33.175 12.042-41.707c1.436-4.864 6.54-7.735 11.404-6.3s7.735 6.54 6.3 11.404a8.78 8.78 0 0 1-1.755 3.43z"/><path d="M388.748 24.29c0 11.324-9.17 20.495-20.495 20.495s-20.495-9.17-20.495-20.495 9.17-20.495 20.495-20.495c11.324-.08 20.495 9.17 20.495 20.495z"/></g><path d="M380.268 36.3a16.99 16.99 0 0 0 0-24.022 16.99 16.99 0 0 0-24.022 0 16.99 16.99 0 0 0 24.022 24.022z" fill="#FFD972"/><path d="M357.168 25.01c0 5.822 5.024 10.526 11.164 10.526s11.165-4.705 11.165-10.526h-22.33z" fill="#252C37"/><path d="M368.332 27.72c-3.588 0-6.937.638-10.048 1.834 1.835 3.59 5.662 5.98 10.048 5.98 4.466 0 8.294-2.472 10.05-5.98-3.03-1.116-6.46-1.834-10.05-1.834z" fill="#F25268"/><path d="M378.46 21.66c-.08 0-.24 0-.32-.08l-4.386-2.153c-.24-.16-.4-.4-.4-.718s.16-.558.4-.718l4.386-2.233c.4-.16.877 0 1.037.32.16.4 0 .797-.32 1.037l-3.03 1.515 3.03 1.435c.4.16.558.638.32 1.037-.16.4-.48.558-.718.558zm-20.415 0c-.32 0-.558-.16-.718-.48-.16-.4 0-.877.4-1.037l3.1-1.356-3.1-1.595c-.4-.16-.558-.638-.32-1.037.16-.4.638-.558 1.037-.32l4.545 2.313c.24.16.4.4.4.718s-.16.558-.478.718l-4.546 2.073h-.32z" fill="#252C37"/><g fill="#fff"><path d="M125.983 125.17l32.855 20.973-38.517-5.822c-4.546-.717-7.656-4.944-6.938-9.4.718-4.545 4.944-7.655 9.4-6.938 1.116.16 2.233.638 3.2 1.197z"/><path d="M140.337 130.912c0 10.208-8.293 18.422-18.42 18.422-10.208 0-18.422-8.294-18.422-18.422 0-10.207 8.294-18.42 18.422-18.42 10.207 0 18.42 8.293 18.42 18.42z"/></g><path d="M132.662 141.704c5.95-5.948 5.95-15.592 0-21.54s-15.592-5.948-21.54 0-5.948 15.592 0 21.54 15.592 5.95 21.54 0z" fill="#FFD972"/><path d="M112.027 131.63c0 5.263 4.466 9.5 10.048 9.5 5.503 0 10.048-4.227 10.048-9.5h-20.096z" fill="#252C37"/><path d="M121.996 134.102c-3.2 0-6.22.558-9.012 1.675 1.595 3.2 5.024 5.423 9.09 5.423 3.988 0 7.417-2.233 9.012-5.343-2.79-1.197-5.9-1.755-9.09-1.755z" fill="#F25268"/><path d="M131.087 128.6c-.08 0-.24 0-.32-.08l-3.988-1.914c-.24-.08-.398-.32-.398-.638 0-.24.16-.48.398-.638l3.988-1.994c.32-.16.717 0 .957.32.16.32 0 .718-.32.957l-2.712 1.356 2.712 1.276c.32.16.478.558.32.877-.16.4-.4.48-.638.48zm-18.342 0c-.24 0-.48-.16-.638-.4-.16-.32 0-.718.32-.877l2.8-1.276-2.8-1.436c-.32-.16-.478-.558-.32-.957.16-.32.558-.478.957-.32l4.147 2.074c.24.08.4.398.4.638s-.16.478-.4.638l-4.147 1.834c-.08.08-.24.08-.32.08z" fill="#252C37"/><g fill="#fff"><path d="M204.852 75.1l-37.082 43.94 15.95-55.264c1.834-6.46 8.693-10.208 15.152-8.373s10.208 8.692 8.373 15.152c-.478 1.675-1.355 3.27-2.392 4.546z"/><path d="M220.88 66.716c0 14.992-12.2 27.194-27.193 27.194s-27.194-12.2-27.194-27.194 12.2-27.194 27.194-27.194c15.072 0 27.193 12.12 27.193 27.194z"/></g><use xlink:href="#D" fill="#FFD876"/><use xlink:href="#D" fill="#4080FF"/><g fill="#fff"><path d="M208.122 67.195c0-1.436-.48-1.834-1.037-2.233.32-.478.558-1.196.558-2.073 0-1.834-1.355-2.95-3.668-2.95h-5.82c.16-.957.398-2.8.398-3.748 0-1.914-.478-4.227-2.153-5.184a3.37 3.37 0 0 0-1.595-.399c-1.037 0-1.674.4-1.914.638-.16.16-.24.4-.24.558l.16 3.908c0 2.87-4.466 6.7-4.466 9.57V75c0 1.515 2.153 2.552 5.183 2.552h8.294c1.515 0 2.552-.478 3.1-1.515.478-.957.4-1.834.24-2.472.798-.24 1.595-.877 1.834-2.073.16-.718 0-1.356-.24-1.834.718-.4 1.356-.957 1.356-2.472zm-22.888-3.67h-4.146a1.43 1.43 0 0 0-1.436 1.435v12.92a1.43 1.43 0 0 0 1.436 1.435h4.146a1.43 1.43 0 0 0 1.436-1.435V64.96a1.43 1.43 0 0 0-1.436-1.435zM82.202 171.264l53.2 20.734-57.02 2.87c-6.778.32-12.52-4.865-12.84-11.563-.32-6.78 4.865-12.52 11.563-12.84 1.834-.08 3.6.24 5.104.797z"/><path d="M106.923 180.355c0 14.992-12.2 27.194-27.193 27.194s-27.194-12.202-27.194-27.194 12.2-27.193 27.194-27.193 27.193 12.2 27.193 27.193z"/></g><use xlink:href="#E" fill="#FFD876"/><use xlink:href="#E" fill="#4080FF"/><g fill="#fff"><path d="M94.164 180.913c0-1.435-.478-1.834-1.037-2.233.32-.478.558-1.196.558-2.073 0-1.834-1.356-2.95-3.668-2.95h-5.82c.16-.957.4-2.8.4-3.748 0-1.914-.478-4.226-2.153-5.183-.478-.24-.957-.4-1.595-.4-1.037 0-1.675.4-1.914.638-.16.16-.24.4-.24.558l.16 3.908c0 2.87-4.466 6.7-4.466 9.57v9.5c0 1.515 2.153 2.552 5.184 2.552h8.294c1.515 0 2.552-.478 3.1-1.515.478-.957.4-1.834.24-2.472.797-.24 1.595-.877 1.834-2.074.16-.717 0-1.355-.24-1.834.718-.24 1.356-.797 1.356-2.233zm-22.887-3.748H67.13a1.43 1.43 0 0 0-1.435 1.436v12.92a1.43 1.43 0 0 0 1.435 1.435h4.147a1.43 1.43 0 0 0 1.435-1.435V178.6a1.43 1.43 0 0 0-1.435-1.436zM310.835 49.5l-.717 57.098L287.4 54.276c-2.7-6.22.16-13.397 6.38-16.1s13.397.16 16.108 6.38c.638 1.515.957 3.27.957 4.944z"/><path d="M325.2 51.166c0 14.992-12.2 27.194-27.194 27.194s-27.193-12.2-27.193-27.194 12.2-27.194 27.193-27.194 27.194 12.2 27.194 27.194z"/></g><use xlink:href="#F" fill="#FFD876"/><use xlink:href="#F" fill="#4080FF"/><g fill="#fff"><path d="M312.43 51.724c0-1.435-.478-1.834-1.036-2.233.32-.478.558-1.196.558-2.073 0-1.834-1.356-2.95-3.668-2.95h-5.822c.16-.957.4-2.8.4-3.748 0-1.914-.48-4.227-2.153-5.183-.48-.24-.957-.4-1.595-.4-1.037 0-1.675.4-1.914.638a.86.86 0 0 0-.239.558l.16 3.907c0 2.87-4.466 6.7-4.466 9.57v9.5c0 1.515 2.233 2.552 5.184 2.552h8.293c1.516 0 2.552-.478 3.1-1.515.48-.957.4-1.834.24-2.472.797-.24 1.595-.877 1.834-2.073.16-.718 0-1.356-.24-1.834.638-.24 1.355-.797 1.355-2.233zm-22.967-3.748h-4.147a1.43 1.43 0 0 0-1.435 1.435v12.92a1.43 1.43 0 0 0 1.435 1.435h4.147a1.43 1.43 0 0 0 1.436-1.435v-12.92a1.43 1.43 0 0 0-1.436-1.435zm-166.51 244.662l33.733-51.676-9.57 60.927c-1.117 7.177-7.895 12.12-15.072 11.005s-12.12-7.894-11.003-15.072c.16-1.914.956-3.748 1.913-5.184z"/><path d="M163.703 296.307a29.41 29.41 0 0 1-29.427 29.426c-16.268 0-29.426-13.158-29.426-29.426a29.41 29.41 0 1 1 58.853 0z"/></g><use xlink:href="#G" fill="#FFD876"/><use xlink:href="#G" fill="#4080FF"/><path d="M149.907 296.865c0-1.595-.558-1.994-1.117-2.472.32-.56.638-1.276.638-2.233 0-1.914-1.515-3.1-3.907-3.1h-6.22c.16-1.037.398-3.03.398-3.988 0-2.073-.478-4.625-2.392-5.582-.558-.32-1.037-.478-1.755-.478-1.116 0-1.834.478-2.073.717-.16.16-.24.4-.24.638l.16 4.227c0 3.1-4.864 7.257-4.864 10.367v10.287c0 1.675 2.392 2.8 5.582 2.8h8.932c1.674 0 2.7-.558 3.35-1.674.558-1.037.478-1.994.24-2.632.877-.32 1.755-.957 1.994-2.233.16-.797 0-1.515-.32-1.994.877-.398 1.595-1.036 1.595-2.63zm-24.8-3.988h-4.466c-.877 0-1.515.718-1.515 1.516v13.955c0 .877.717 1.515 1.515 1.515h4.466c.877 0 1.515-.717 1.515-1.515v-13.955c.08-.878-.638-1.516-1.515-1.516z" fill="#fff"/><defs><filter id="A" x=".926" y="236.857" width="468.149" height="68.339" filterUnits="userSpaceOnUse" color-interpolation-filters="sRGB"><feFlood flood-opacity="0"/><feBlend in="SourceGraphic"/><feGaussianBlur stdDeviation="6"/></filter><path id="B" d="M269.686 116.797h-78.8v7.416h78.8v-7.416z"/><path id="C" d="M378.94 178.202h-41.31v3.908h41.31v-3.908z"/><path id="D" d="M217.293 66.716c0 13.078-10.607 23.605-23.605 23.605-13.08 0-23.605-10.606-23.605-23.605 0-13.078 10.606-23.605 23.605-23.605 13.078 0 23.605 10.527 23.605 23.605z"/><path id="E" d="M103.335 180.355c0 13.08-10.606 23.605-23.605 23.605-13.078 0-23.605-10.606-23.605-23.605S66.73 156.75 79.73 156.75c13.078 0 23.605 10.606 23.605 23.605z"/><path id="F" d="M321.6 51.166c0 13.078-10.606 23.605-23.605 23.605-13.078 0-23.605-10.606-23.605-23.605 0-13.078 10.606-23.605 23.605-23.605 13.08 0 23.605 10.527 23.605 23.605z"/><path id="G" d="M159.795 296.307c0 14.115-11.403 25.52-25.518 25.52s-25.52-11.404-25.52-25.52 11.403-25.52 25.52-25.52 25.518 11.403 25.518 25.52z"/></defs></svg>