<svg xmlns="http://www.w3.org/2000/svg" width="780" height="440"><path fill="#771027" d="M0 0h780v440H0z"/><path fill="none" stroke="#4f1221" stroke-miterlimit="10" stroke-width="2" d="M390 95.4L563.9-78.5M390 95.4L216.1-78.5"/><path d="M390 60.6a40.6 40.6 0 0 0-40.6 40.6h81.2A40.6 40.6 0 0 0 390 60.6z" fill="#162020"/><path d="M587.1 343.6a7 7 0 0 1-7 6.9H200a7 7 0 0 1-7-6.9V96.5a7 7 0 0 1 7-6.9h380.2a7 7 0 0 1 7 6.9z" fill="#e3415f"/><rect x="216.1" y="112.8" width="295.7" height="214.5" rx="20" ry="20" fill="#771027"/><path fill="none" stroke="#fff" stroke-linecap="round" stroke-linejoin="round" stroke-width="2" d="M204.5 101.2h318.9v237.7H204.5zM509.4 115.5l7.5-7.5M509.4 325.6l7.5 7.5M534.9 101.2h40.6v237.7h-40.6z"/><circle cx="554.8" cy="127.8" r="14.9" fill="#fff"/><circle cx="555.7" cy="179.9" r="14.9" fill="#fff"/><path fill="none" stroke="#e3415f" stroke-linecap="round" stroke-miterlimit="10" stroke-width="2" d="M546.1 179.9h19.2M546.9 135.6l15.7-15.7"/><circle cx="544.4" cy="220.8" r="2.2" fill="#162020"/><path fill="none" d="M540.7 217.2h7.3v7.3h-7.3z"/><circle cx="551.6" cy="220.8" r="2.2" fill="#162020"/><path fill="none" d="M548 217.2h7.3v7.3H548z"/><circle cx="558.9" cy="220.8" r="2.2" fill="#162020"/><path fill="none" d="M555.2 217.2h7.3v7.3h-7.3z"/><circle cx="566.1" cy="220.8" r="2.2" fill="#162020"/><path fill="none" d="M562.5 217.2h7.3v7.3h-7.3z"/><circle cx="544.4" cy="228" r="2.2" fill="#162020"/><path fill="none" d="M540.7 224.4h7.3v7.3h-7.3z"/><circle cx="551.6" cy="228" r="2.2" fill="#162020"/><path fill="none" d="M548 224.4h7.3v7.3H548z"/><circle cx="558.9" cy="228" r="2.2" fill="#162020"/><path fill="none" d="M555.2 224.4h7.3v7.3h-7.3z"/><circle cx="566.1" cy="228" r="2.2" fill="#162020"/><path fill="none" d="M562.5 224.4h7.3v7.3h-7.3z"/><circle cx="544.4" cy="235.3" r="2.2" fill="#162020"/><path fill="none" d="M540.7 231.7h7.3v7.3h-7.3z"/><circle cx="551.6" cy="235.3" r="2.2" fill="#162020"/><path fill="none" d="M548 231.7h7.3v7.3H548z"/><circle cx="558.9" cy="235.3" r="2.2" fill="#162020"/><path fill="none" d="M555.2 231.7h7.3v7.3h-7.3z"/><circle cx="566.1" cy="235.3" r="2.2" fill="#162020"/><path fill="none" d="M562.5 231.7h7.3v7.3h-7.3z"/><circle cx="544.4" cy="242.5" r="2.2" fill="#162020"/><path fill="none" d="M540.7 238.9h7.3v7.3h-7.3z"/><circle cx="551.6" cy="242.5" r="2.2" fill="#162020"/><path fill="none" d="M548 238.9h7.3v7.3H548z"/><circle cx="558.9" cy="242.5" r="2.2" fill="#162020"/><path fill="none" d="M555.2 238.9h7.3v7.3h-7.3z"/><circle cx="566.1" cy="242.5" r="2.2" fill="#162020"/><path fill="none" d="M562.5 238.9h7.3v7.3h-7.3z"/><circle cx="544.4" cy="249.8" r="2.2" fill="#162020"/><path fill="none" d="M540.7 246.2h7.3v7.3h-7.3z"/><circle cx="551.6" cy="249.8" r="2.2" fill="#162020"/><path fill="none" d="M548 246.2h7.3v7.3H548z"/><circle cx="558.9" cy="249.8" r="2.2" fill="#162020"/><path fill="none" d="M555.2 246.2h7.3v7.3h-7.3z"/><circle cx="566.1" cy="249.8" r="2.2" fill="#162020"/><path fill="none" d="M562.5 246.2h7.3v7.3h-7.3z"/><circle cx="544.4" cy="257" r="2.2" fill="#162020"/><path fill="none" d="M540.7 253.4h7.3v7.3h-7.3z"/><circle cx="551.6" cy="257" r="2.2" fill="#162020"/><path fill="none" d="M548 253.4h7.3v7.3H548z"/><circle cx="558.9" cy="257" r="2.2" fill="#162020"/><path fill="none" d="M555.2 253.4h7.3v7.3h-7.3z"/><circle cx="566.1" cy="257" r="2.2" fill="#162020"/><path fill="none" d="M562.5 253.4h7.3v7.3h-7.3z"/><circle cx="544.4" cy="264.3" r="2.2" fill="#162020"/><path fill="none" d="M540.7 260.6h7.3v7.3h-7.3z"/><circle cx="551.6" cy="264.3" r="2.2" fill="#162020"/><path fill="none" d="M548 260.6h7.3v7.3H548z"/><g><circle cx="558.9" cy="264.3" r="2.2" fill="#162020"/><path fill="none" d="M555.2 260.6h7.3v7.3h-7.3z"/></g><g><circle cx="566.1" cy="264.3" r="2.2" fill="#162020"/><path fill="none" d="M562.5 260.6h7.3v7.3h-7.3z"/></g><g><circle cx="544.4" cy="271.5" r="2.2" fill="#162020"/><path fill="none" d="M540.7 267.9h7.3v7.3h-7.3z"/></g><g><circle cx="551.6" cy="271.5" r="2.2" fill="#162020"/><path fill="none" d="M548 267.9h7.3v7.3H548z"/></g><g><circle cx="558.9" cy="271.5" r="2.2" fill="#162020"/><path fill="none" d="M555.2 267.9h7.3v7.3h-7.3z"/></g><g><circle cx="566.1" cy="271.5" r="2.2" fill="#162020"/><path fill="none" d="M562.5 267.9h7.3v7.3h-7.3z"/></g><g><circle cx="544.4" cy="278.8" r="2.2" fill="#162020"/><path fill="none" d="M540.7 275.1h7.3v7.3h-7.3z"/></g><g><circle cx="551.6" cy="278.8" r="2.2" fill="#162020"/><path fill="none" d="M548 275.1h7.3v7.3H548z"/></g><g><circle cx="558.9" cy="278.8" r="2.2" fill="#162020"/><path fill="none" d="M555.2 275.1h7.3v7.3h-7.3z"/></g><g><circle cx="566.1" cy="278.8" r="2.2" fill="#162020"/><path fill="none" d="M562.5 275.1h7.3v7.3h-7.3z"/></g><g><circle cx="544.4" cy="286" r="2.2" fill="#162020"/><path fill="none" d="M540.7 282.4h7.3v7.3h-7.3z"/></g><g><circle cx="551.6" cy="286" r="2.2" fill="#162020"/><path fill="none" d="M548 282.4h7.3v7.3H548z"/></g><g><circle cx="558.9" cy="286" r="2.2" fill="#162020"/><path fill="none" d="M555.2 282.4h7.3v7.3h-7.3z"/></g><g><circle cx="566.1" cy="286" r="2.2" fill="#162020"/><path fill="none" d="M562.5 282.4h7.3v7.3h-7.3z"/></g><g><circle cx="544.4" cy="293.8" r="2.2" fill="#162020"/><path fill="none" d="M540.7 290.2h7.3v7.3h-7.3z"/></g><g><circle cx="551.6" cy="293.8" r="2.2" fill="#162020"/><path fill="none" d="M548 290.2h7.3v7.3H548z"/></g><g><circle cx="558.9" cy="293.8" r="2.2" fill="#162020"/><path fill="none" d="M555.2 290.2h7.3v7.3h-7.3z"/></g><g><circle cx="566.1" cy="293.8" r="2.2" fill="#162020"/><path fill="none" d="M562.5 290.2h7.3v7.3h-7.3z"/></g><g><circle cx="544.4" cy="301.1" r="2.2" fill="#162020"/><path fill="none" d="M540.7 297.4h7.3v7.3h-7.3z"/></g><g><circle cx="551.6" cy="301.1" r="2.2" fill="#162020"/><path fill="none" d="M548 297.4h7.3v7.3H548z"/></g><g><circle cx="558.9" cy="301.1" r="2.2" fill="#162020"/><path fill="none" d="M555.2 297.4h7.3v7.3h-7.3z"/></g><g><circle cx="566.1" cy="301.1" r="2.2" fill="#162020"/><path fill="none" d="M562.5 297.4h7.3v7.3h-7.3z"/></g><g><circle cx="544.4" cy="308.3" r="2.2" fill="#162020"/><path fill="none" d="M540.7 304.7h7.3v7.3h-7.3z"/></g><g><circle cx="551.6" cy="308.3" r="2.2" fill="#162020"/><path fill="none" d="M548 304.7h7.3v7.3H548z"/></g><circle cx="558.9" cy="308.3" r="2.2" fill="#162020"/><g><circle cx="566.1" cy="308.3" r="2.2" fill="#162020"/><path fill="none" d="M562.5 304.7h7.3v7.3h-7.3z"/></g><path fill="none" stroke="#fff" stroke-linecap="round" stroke-linejoin="round" stroke-width="2" d="M217.8 114.5l-7.5-7.5M217.8 325.6l-7.5 7.5"/><g fill="#fff"><path d="M368 153c-18 0-20.2 0-27.2.4a48.5 48.5 0 0 0-16 3 33.8 33.8 0 0 0-19.3 19.4 48.5 48.5 0 0 0-3 16c-.4 7-.5 9.3-.5 27.2s.1 20.2.4 27.2a48.5 48.5 0 0 0 3 16 33.8 33.8 0 0 0 19.4 19.3 48.5 48.5 0 0 0 16 3c7 .4 9.3.5 27.2.5s20.2-.1 27.2-.4a48.5 48.5 0 0 0 16-3.1 33.8 33.8 0 0 0 19.3-19.3 48.5 48.5 0 0 0 3-16c.4-7 .5-9.3.5-27.2s-.1-20.2-.4-27.2a48.5 48.5 0 0 0-3-16 33.8 33.8 0 0 0-19.4-19.3 48.5 48.5 0 0 0-16-3.1c-7-.3-9.3-.4-27.2-.4zm0 11.9c17.6 0 19.7 0 26.7.4a36.5 36.5 0 0 1 12.2 2.2 21.9 21.9 0 0 1 12.6 12.6 36.5 36.5 0 0 1 2.2 12.2c.3 7 .4 9 .4 26.7s0 19.7-.4 26.7a36.5 36.5 0 0 1-2.3 12.2 21.9 21.9 0 0 1-12.5 12.6 36.5 36.5 0 0 1-12.2 2.2c-7 .3-9 .4-26.7.4s-19.7 0-26.7-.4a36.5 36.5 0 0 1-12.2-2.3 21.9 21.9 0 0 1-12.6-12.5 36.5 36.5 0 0 1-2.2-12.2c-.3-7-.4-9-.4-26.7s0-19.7.4-26.7a36.5 36.5 0 0 1 2.3-12.2 21.9 21.9 0 0 1 12.5-12.6 36.5 36.5 0 0 1 12.2-2.2c7-.3 9-.4 26.7-.4"/><path d="M368 241a22 22 0 1 1 22-22 22 22 0 0 1-22 22zm0-55.9a33.9 33.9 0 1 0 33.9 33.9 33.9 33.9 0 0 0-33.9-33.9zM411.1 183.8a8 8 0 1 1-7.9-8 8 8 0 0 1 8 8z"/></g></svg>